<mxfile host="app.diagrams.net" agent="Mozilla/5.0 (Macintosh; Intel Mac OS X 10_15_7) AppleWebKit/537.36 (KHTML, like Gecko) Chrome/128.0.0.0 Safari/537.36" version="24.7.14">
  <diagram name="Страница — 1" id="8WaBhiAj_Uc4v7Mk9vAI">
    <mxGraphModel grid="1" page="1" gridSize="10" guides="1" tooltips="1" connect="1" arrows="1" fold="1" pageScale="1" pageWidth="1100" pageHeight="850" math="0" shadow="0">
      <root>
        <mxCell id="0" />
        <mxCell id="1" parent="0" />
        <mxCell id="ws13DUqkMzeIhvJP3DFd-1" value="Книга" style="rounded=0;whiteSpace=wrap;html=1;fontFamily=Times New Roman;" vertex="1" parent="1">
          <mxGeometry x="203.5" y="-477.5" width="90" height="40" as="geometry" />
        </mxCell>
        <mxCell id="ws13DUqkMzeIhvJP3DFd-8" style="edgeStyle=none;rounded=0;orthogonalLoop=1;jettySize=auto;html=1;exitX=0.5;exitY=0;exitDx=0;exitDy=0;fontFamily=Times New Roman;" edge="1" parent="1">
          <mxGeometry relative="1" as="geometry">
            <mxPoint x="314.75" y="-560" as="sourcePoint" />
            <mxPoint x="314.75" y="-560" as="targetPoint" />
          </mxGeometry>
        </mxCell>
        <mxCell id="ws13DUqkMzeIhvJP3DFd-9" style="edgeStyle=none;rounded=0;orthogonalLoop=1;jettySize=auto;html=1;exitX=0.5;exitY=0;exitDx=0;exitDy=0;fontFamily=Times New Roman;" edge="1" parent="1">
          <mxGeometry relative="1" as="geometry">
            <mxPoint x="314.75" y="-560" as="sourcePoint" />
            <mxPoint x="314.75" y="-560" as="targetPoint" />
          </mxGeometry>
        </mxCell>
        <mxCell id="ws13DUqkMzeIhvJP3DFd-13" style="edgeStyle=none;rounded=0;orthogonalLoop=1;jettySize=auto;html=1;exitX=0.5;exitY=0;exitDx=0;exitDy=0;entryX=0.5;entryY=1;entryDx=0;entryDy=0;endArrow=none;endFill=0;fontFamily=Times New Roman;" edge="1" parent="1" source="ws13DUqkMzeIhvJP3DFd-14" target="PWeqDjmUO35u3krlNOn2-31">
          <mxGeometry relative="1" as="geometry">
            <mxPoint x="539.75" y="-330" as="targetPoint" />
          </mxGeometry>
        </mxCell>
        <mxCell id="ws13DUqkMzeIhvJP3DFd-14" value="Прізвище" style="ellipse;whiteSpace=wrap;html=1;fontFamily=Times New Roman;" vertex="1" parent="1">
          <mxGeometry x="500" y="-210" width="100" height="40" as="geometry" />
        </mxCell>
        <mxCell id="ws13DUqkMzeIhvJP3DFd-15" style="edgeStyle=none;rounded=0;orthogonalLoop=1;jettySize=auto;html=1;exitX=1;exitY=0.5;exitDx=0;exitDy=0;endArrow=none;endFill=0;fontFamily=Times New Roman;entryX=0.5;entryY=1;entryDx=0;entryDy=0;" edge="1" parent="1" source="ws13DUqkMzeIhvJP3DFd-16" target="PWeqDjmUO35u3krlNOn2-31">
          <mxGeometry relative="1" as="geometry">
            <mxPoint x="539.75" y="-330" as="targetPoint" />
          </mxGeometry>
        </mxCell>
        <mxCell id="ws13DUqkMzeIhvJP3DFd-16" value="ID Читача" style="ellipse;whiteSpace=wrap;html=1;fontFamily=Times New Roman;" vertex="1" parent="1">
          <mxGeometry x="400" y="-270" width="100" height="40" as="geometry" />
        </mxCell>
        <mxCell id="ws13DUqkMzeIhvJP3DFd-17" style="edgeStyle=none;rounded=0;orthogonalLoop=1;jettySize=auto;html=1;entryX=0.5;entryY=1;entryDx=0;entryDy=0;endArrow=none;endFill=0;fontFamily=Times New Roman;exitX=0.5;exitY=0;exitDx=0;exitDy=0;" edge="1" parent="1" source="ws13DUqkMzeIhvJP3DFd-18" target="PWeqDjmUO35u3krlNOn2-31">
          <mxGeometry relative="1" as="geometry">
            <mxPoint x="609.75" y="-180" as="sourcePoint" />
            <mxPoint x="539.75" y="-330" as="targetPoint" />
          </mxGeometry>
        </mxCell>
        <mxCell id="ws13DUqkMzeIhvJP3DFd-18" value="Імʼя" style="ellipse;whiteSpace=wrap;html=1;fontFamily=Times New Roman;" vertex="1" parent="1">
          <mxGeometry x="620" y="-210" width="100" height="40" as="geometry" />
        </mxCell>
        <mxCell id="ws13DUqkMzeIhvJP3DFd-22" value="Адреса проживання" style="ellipse;whiteSpace=wrap;html=1;fontFamily=Times New Roman;" vertex="1" parent="1">
          <mxGeometry x="720" y="-270" width="100" height="40" as="geometry" />
        </mxCell>
        <mxCell id="ws13DUqkMzeIhvJP3DFd-23" style="edgeStyle=none;rounded=0;orthogonalLoop=1;jettySize=auto;html=1;exitX=0.5;exitY=0;exitDx=0;exitDy=0;endArrow=none;endFill=0;fontFamily=Times New Roman;" edge="1" parent="1">
          <mxGeometry relative="1" as="geometry">
            <mxPoint x="539.75" y="-330" as="sourcePoint" />
            <mxPoint x="539.75" y="-330" as="targetPoint" />
          </mxGeometry>
        </mxCell>
        <mxCell id="ws13DUqkMzeIhvJP3DFd-24" style="edgeStyle=none;rounded=0;orthogonalLoop=1;jettySize=auto;html=1;exitX=0.5;exitY=0;exitDx=0;exitDy=0;endArrow=none;endFill=0;fontFamily=Times New Roman;" edge="1" parent="1">
          <mxGeometry relative="1" as="geometry">
            <mxPoint x="539.75" y="-330" as="sourcePoint" />
            <mxPoint x="539.75" y="-330" as="targetPoint" />
          </mxGeometry>
        </mxCell>
        <mxCell id="ws13DUqkMzeIhvJP3DFd-33" style="edgeStyle=none;rounded=0;orthogonalLoop=1;jettySize=auto;html=1;exitX=0.5;exitY=0;exitDx=0;exitDy=0;fontFamily=Times New Roman;" edge="1" parent="1">
          <mxGeometry relative="1" as="geometry">
            <mxPoint x="789.25" y="-560" as="sourcePoint" />
            <mxPoint x="789.25" y="-560" as="targetPoint" />
          </mxGeometry>
        </mxCell>
        <mxCell id="ws13DUqkMzeIhvJP3DFd-34" style="edgeStyle=none;rounded=0;orthogonalLoop=1;jettySize=auto;html=1;exitX=0.5;exitY=0;exitDx=0;exitDy=0;fontFamily=Times New Roman;" edge="1" parent="1">
          <mxGeometry relative="1" as="geometry">
            <mxPoint x="789.25" y="-560" as="sourcePoint" />
            <mxPoint x="789.25" y="-560" as="targetPoint" />
          </mxGeometry>
        </mxCell>
        <mxCell id="ws13DUqkMzeIhvJP3DFd-35" value="Автор" style="rounded=0;whiteSpace=wrap;html=1;fontFamily=Times New Roman;" vertex="1" parent="1">
          <mxGeometry x="203.5" y="-660" width="90" height="40" as="geometry" />
        </mxCell>
        <mxCell id="ws13DUqkMzeIhvJP3DFd-36" style="edgeStyle=none;rounded=0;orthogonalLoop=1;jettySize=auto;html=1;exitX=0.5;exitY=0;exitDx=0;exitDy=0;entryX=0.5;entryY=0;entryDx=0;entryDy=0;endArrow=none;endFill=0;fontFamily=Times New Roman;" edge="1" parent="1" source="ws13DUqkMzeIhvJP3DFd-37" target="ws13DUqkMzeIhvJP3DFd-35">
          <mxGeometry relative="1" as="geometry">
            <mxPoint x="147.75" y="310" as="targetPoint" />
          </mxGeometry>
        </mxCell>
        <mxCell id="ws13DUqkMzeIhvJP3DFd-37" value="Прізвище" style="ellipse;whiteSpace=wrap;html=1;fontFamily=Times New Roman;" vertex="1" parent="1">
          <mxGeometry x="198.5" y="-790" width="100" height="40" as="geometry" />
        </mxCell>
        <mxCell id="ws13DUqkMzeIhvJP3DFd-38" style="edgeStyle=none;rounded=0;orthogonalLoop=1;jettySize=auto;html=1;exitX=0.5;exitY=1;exitDx=0;exitDy=0;endArrow=none;endFill=0;fontFamily=Times New Roman;entryX=0.5;entryY=0;entryDx=0;entryDy=0;" edge="1" parent="1" source="ws13DUqkMzeIhvJP3DFd-39" target="ws13DUqkMzeIhvJP3DFd-35">
          <mxGeometry relative="1" as="geometry">
            <mxPoint x="123.75" y="-750" as="sourcePoint" />
            <mxPoint x="235.75" y="-110" as="targetPoint" />
          </mxGeometry>
        </mxCell>
        <mxCell id="ws13DUqkMzeIhvJP3DFd-39" value="ID Автора" style="ellipse;whiteSpace=wrap;html=1;fontFamily=Times New Roman;" vertex="1" parent="1">
          <mxGeometry x="80" y="-760" width="100" height="40" as="geometry" />
        </mxCell>
        <mxCell id="ws13DUqkMzeIhvJP3DFd-40" style="edgeStyle=none;rounded=0;orthogonalLoop=1;jettySize=auto;html=1;exitX=0.5;exitY=0;exitDx=0;exitDy=0;entryX=0.5;entryY=0;entryDx=0;entryDy=0;endArrow=none;endFill=0;fontFamily=Times New Roman;" edge="1" parent="1" source="ws13DUqkMzeIhvJP3DFd-41" target="ws13DUqkMzeIhvJP3DFd-35">
          <mxGeometry relative="1" as="geometry" />
        </mxCell>
        <mxCell id="ws13DUqkMzeIhvJP3DFd-41" value="Імʼя" style="ellipse;whiteSpace=wrap;html=1;fontFamily=Times New Roman;" vertex="1" parent="1">
          <mxGeometry x="320" y="-760" width="100" height="40" as="geometry" />
        </mxCell>
        <mxCell id="ws13DUqkMzeIhvJP3DFd-46" style="edgeStyle=none;rounded=0;orthogonalLoop=1;jettySize=auto;html=1;exitX=0.5;exitY=0;exitDx=0;exitDy=0;endArrow=none;endFill=0;fontFamily=Times New Roman;" edge="1" parent="1" source="ws13DUqkMzeIhvJP3DFd-35" target="ws13DUqkMzeIhvJP3DFd-35">
          <mxGeometry relative="1" as="geometry" />
        </mxCell>
        <mxCell id="ws13DUqkMzeIhvJP3DFd-47" style="edgeStyle=none;rounded=0;orthogonalLoop=1;jettySize=auto;html=1;exitX=0.5;exitY=0;exitDx=0;exitDy=0;endArrow=none;endFill=0;fontFamily=Times New Roman;" edge="1" parent="1" source="ws13DUqkMzeIhvJP3DFd-35" target="ws13DUqkMzeIhvJP3DFd-35">
          <mxGeometry relative="1" as="geometry" />
        </mxCell>
        <mxCell id="PWeqDjmUO35u3krlNOn2-48" style="edgeStyle=none;rounded=0;orthogonalLoop=1;jettySize=auto;html=1;exitX=0.5;exitY=1;exitDx=0;exitDy=0;entryX=0.5;entryY=0;entryDx=0;entryDy=0;endArrow=none;endFill=0;" edge="1" parent="1" source="ws13DUqkMzeIhvJP3DFd-53" target="PWeqDjmUO35u3krlNOn2-30">
          <mxGeometry relative="1" as="geometry" />
        </mxCell>
        <mxCell id="ws13DUqkMzeIhvJP3DFd-53" value="ID Запозичення" style="ellipse;whiteSpace=wrap;html=1;fontFamily=Times New Roman;" vertex="1" parent="1">
          <mxGeometry x="339.75" y="-640" width="100" height="40" as="geometry" />
        </mxCell>
        <mxCell id="PWeqDjmUO35u3krlNOn2-49" style="edgeStyle=none;rounded=0;orthogonalLoop=1;jettySize=auto;html=1;exitX=0.5;exitY=1;exitDx=0;exitDy=0;entryX=0.5;entryY=0;entryDx=0;entryDy=0;endArrow=none;endFill=0;" edge="1" parent="1" source="ws13DUqkMzeIhvJP3DFd-55" target="PWeqDjmUO35u3krlNOn2-30">
          <mxGeometry relative="1" as="geometry" />
        </mxCell>
        <mxCell id="ws13DUqkMzeIhvJP3DFd-55" value="ID Читача" style="ellipse;whiteSpace=wrap;html=1;fontFamily=Times New Roman;" vertex="1" parent="1">
          <mxGeometry x="450" y="-670" width="100" height="40" as="geometry" />
        </mxCell>
        <mxCell id="PWeqDjmUO35u3krlNOn2-50" style="edgeStyle=none;rounded=0;orthogonalLoop=1;jettySize=auto;html=1;exitX=0.5;exitY=1;exitDx=0;exitDy=0;entryX=0.5;entryY=0;entryDx=0;entryDy=0;endArrow=none;endFill=0;" edge="1" parent="1" source="ws13DUqkMzeIhvJP3DFd-56" target="PWeqDjmUO35u3krlNOn2-30">
          <mxGeometry relative="1" as="geometry" />
        </mxCell>
        <mxCell id="ws13DUqkMzeIhvJP3DFd-56" value="ID книги" style="ellipse;whiteSpace=wrap;html=1;fontFamily=Times New Roman;" vertex="1" parent="1">
          <mxGeometry x="564.75" y="-680" width="100" height="40" as="geometry" />
        </mxCell>
        <mxCell id="PWeqDjmUO35u3krlNOn2-51" style="edgeStyle=none;rounded=0;orthogonalLoop=1;jettySize=auto;html=1;exitX=0.5;exitY=1;exitDx=0;exitDy=0;entryX=0.5;entryY=0;entryDx=0;entryDy=0;endArrow=none;endFill=0;" edge="1" parent="1" source="ws13DUqkMzeIhvJP3DFd-57" target="PWeqDjmUO35u3krlNOn2-30">
          <mxGeometry relative="1" as="geometry" />
        </mxCell>
        <mxCell id="ws13DUqkMzeIhvJP3DFd-57" value="Дата і час&lt;div&gt;видачі&lt;/div&gt;" style="ellipse;whiteSpace=wrap;html=1;fontFamily=Times New Roman;" vertex="1" parent="1">
          <mxGeometry x="674.75" y="-650" width="100" height="40" as="geometry" />
        </mxCell>
        <mxCell id="PWeqDjmUO35u3krlNOn2-54" style="edgeStyle=none;rounded=0;orthogonalLoop=1;jettySize=auto;html=1;exitX=0.5;exitY=1;exitDx=0;exitDy=0;entryX=0.5;entryY=0;entryDx=0;entryDy=0;startArrow=none;startFill=0;endArrow=none;endFill=0;" edge="1" parent="1" source="ws13DUqkMzeIhvJP3DFd-58" target="PWeqDjmUO35u3krlNOn2-30">
          <mxGeometry relative="1" as="geometry">
            <mxPoint x="544.75" y="-470" as="targetPoint" />
          </mxGeometry>
        </mxCell>
        <mxCell id="ws13DUqkMzeIhvJP3DFd-58" value="Дата і час&amp;nbsp;&lt;div&gt;повернення&lt;/div&gt;" style="ellipse;whiteSpace=wrap;html=1;fontFamily=Times New Roman;" vertex="1" parent="1">
          <mxGeometry x="740" y="-600" width="99" height="40" as="geometry" />
        </mxCell>
        <mxCell id="PWeqDjmUO35u3krlNOn2-53" style="edgeStyle=none;rounded=0;orthogonalLoop=1;jettySize=auto;html=1;exitX=0;exitY=0.5;exitDx=0;exitDy=0;entryX=0.5;entryY=0;entryDx=0;entryDy=0;startArrow=none;startFill=0;endArrow=none;endFill=0;" edge="1" parent="1" source="ws13DUqkMzeIhvJP3DFd-59" target="PWeqDjmUO35u3krlNOn2-30">
          <mxGeometry relative="1" as="geometry" />
        </mxCell>
        <mxCell id="ws13DUqkMzeIhvJP3DFd-59" value="Фактична&amp;nbsp;&lt;span style=&quot;background-color: initial;&quot;&gt;дата і час&lt;/span&gt;&lt;div&gt;&lt;div&gt;повернення&lt;/div&gt;&lt;/div&gt;" style="ellipse;whiteSpace=wrap;html=1;fontFamily=Times New Roman;" vertex="1" parent="1">
          <mxGeometry x="750" y="-525" width="140" height="40" as="geometry" />
        </mxCell>
        <mxCell id="PWeqDjmUO35u3krlNOn2-34" style="edgeStyle=none;rounded=0;orthogonalLoop=1;jettySize=auto;html=1;exitX=0.5;exitY=1;exitDx=0;exitDy=0;entryX=0.5;entryY=0;entryDx=0;entryDy=0;endArrow=ERoneToMany;endFill=0;" edge="1" parent="1" source="ws13DUqkMzeIhvJP3DFd-65" target="ws13DUqkMzeIhvJP3DFd-1">
          <mxGeometry relative="1" as="geometry">
            <mxPoint x="233" y="-490" as="targetPoint" />
          </mxGeometry>
        </mxCell>
        <mxCell id="PWeqDjmUO35u3krlNOn2-63" style="edgeStyle=none;rounded=0;orthogonalLoop=1;jettySize=auto;html=1;exitX=0.5;exitY=0;exitDx=0;exitDy=0;entryX=0.5;entryY=1;entryDx=0;entryDy=0;endArrow=ERoneToMany;endFill=0;" edge="1" parent="1" source="ws13DUqkMzeIhvJP3DFd-65" target="ws13DUqkMzeIhvJP3DFd-35">
          <mxGeometry relative="1" as="geometry" />
        </mxCell>
        <mxCell id="ws13DUqkMzeIhvJP3DFd-65" value="Написав" style="rhombus;whiteSpace=wrap;html=1;fontFamily=Times New Roman;" vertex="1" parent="1">
          <mxGeometry x="195.75" y="-580" width="105.5" height="50" as="geometry" />
        </mxCell>
        <mxCell id="PWeqDjmUO35u3krlNOn2-46" style="edgeStyle=none;rounded=0;orthogonalLoop=1;jettySize=auto;html=1;exitX=0;exitY=0.5;exitDx=0;exitDy=0;entryX=1;entryY=0.5;entryDx=0;entryDy=0;endArrow=ERone;endFill=0;" edge="1" parent="1" source="ws13DUqkMzeIhvJP3DFd-66" target="ws13DUqkMzeIhvJP3DFd-1">
          <mxGeometry relative="1" as="geometry" />
        </mxCell>
        <mxCell id="PWeqDjmUO35u3krlNOn2-47" style="edgeStyle=none;rounded=0;orthogonalLoop=1;jettySize=auto;html=1;exitX=1;exitY=0.5;exitDx=0;exitDy=0;entryX=0;entryY=0.5;entryDx=0;entryDy=0;endArrow=ERzeroToMany;endFill=0;startArrow=none;startFill=0;" edge="1" parent="1" source="ws13DUqkMzeIhvJP3DFd-66" target="PWeqDjmUO35u3krlNOn2-30">
          <mxGeometry relative="1" as="geometry" />
        </mxCell>
        <mxCell id="ws13DUqkMzeIhvJP3DFd-66" value="запозичили/&lt;div&gt;повернули&lt;/div&gt;" style="rhombus;whiteSpace=wrap;html=1;fontFamily=Times New Roman;" vertex="1" parent="1">
          <mxGeometry x="364.25" y="-485" width="120.5" height="55" as="geometry" />
        </mxCell>
        <mxCell id="PWeqDjmUO35u3krlNOn2-3" value="Назва" style="ellipse;whiteSpace=wrap;html=1;fontFamily=Times New Roman;" vertex="1" parent="1">
          <mxGeometry x="30" y="-460" width="100" height="40" as="geometry" />
        </mxCell>
        <mxCell id="PWeqDjmUO35u3krlNOn2-8" style="edgeStyle=none;rounded=0;orthogonalLoop=1;jettySize=auto;html=1;exitX=0.5;exitY=0;exitDx=0;exitDy=0;fontFamily=Times New Roman;" edge="1" parent="1">
          <mxGeometry relative="1" as="geometry">
            <mxPoint x="753.25" y="-580" as="sourcePoint" />
            <mxPoint x="753.25" y="-580" as="targetPoint" />
          </mxGeometry>
        </mxCell>
        <mxCell id="PWeqDjmUO35u3krlNOn2-9" style="edgeStyle=none;rounded=0;orthogonalLoop=1;jettySize=auto;html=1;exitX=0.5;exitY=0;exitDx=0;exitDy=0;fontFamily=Times New Roman;" edge="1" parent="1">
          <mxGeometry relative="1" as="geometry">
            <mxPoint x="753.25" y="-580" as="sourcePoint" />
            <mxPoint x="753.25" y="-580" as="targetPoint" />
          </mxGeometry>
        </mxCell>
        <mxCell id="PWeqDjmUO35u3krlNOn2-10" value="Рік видання" style="ellipse;whiteSpace=wrap;html=1;fontFamily=Times New Roman;" vertex="1" parent="1">
          <mxGeometry x="30" y="-400" width="100" height="40" as="geometry" />
        </mxCell>
        <mxCell id="PWeqDjmUO35u3krlNOn2-15" style="edgeStyle=none;rounded=0;orthogonalLoop=1;jettySize=auto;html=1;exitX=1;exitY=0.5;exitDx=0;exitDy=0;entryX=0;entryY=0.5;entryDx=0;entryDy=0;endArrow=none;endFill=0;fontFamily=Times New Roman;" edge="1" parent="1" source="PWeqDjmUO35u3krlNOn2-3" target="ws13DUqkMzeIhvJP3DFd-1">
          <mxGeometry relative="1" as="geometry">
            <mxPoint x="188" y="-470" as="targetPoint" />
            <mxPoint x="108.00000000000045" y="-520" as="sourcePoint" />
          </mxGeometry>
        </mxCell>
        <mxCell id="PWeqDjmUO35u3krlNOn2-16" style="edgeStyle=none;rounded=0;orthogonalLoop=1;jettySize=auto;html=1;exitX=1;exitY=0.5;exitDx=0;exitDy=0;entryX=0;entryY=0.5;entryDx=0;entryDy=0;endArrow=none;endFill=0;fontFamily=Times New Roman;" edge="1" parent="1" source="PWeqDjmUO35u3krlNOn2-62" target="ws13DUqkMzeIhvJP3DFd-1">
          <mxGeometry relative="1" as="geometry">
            <mxPoint x="188" y="-470" as="targetPoint" />
            <mxPoint x="139.99999999999977" y="-580" as="sourcePoint" />
          </mxGeometry>
        </mxCell>
        <mxCell id="PWeqDjmUO35u3krlNOn2-18" style="edgeStyle=none;rounded=0;orthogonalLoop=1;jettySize=auto;html=1;exitX=1;exitY=0.5;exitDx=0;exitDy=0;endArrow=none;endFill=0;fontFamily=Times New Roman;entryX=0;entryY=0.5;entryDx=0;entryDy=0;" edge="1" parent="1" source="PWeqDjmUO35u3krlNOn2-10" target="ws13DUqkMzeIhvJP3DFd-1">
          <mxGeometry relative="1" as="geometry">
            <mxPoint x="108.00000000000045" y="-340" as="sourcePoint" />
            <mxPoint x="200" y="-450" as="targetPoint" />
          </mxGeometry>
        </mxCell>
        <mxCell id="PWeqDjmUO35u3krlNOn2-28" style="edgeStyle=none;rounded=0;orthogonalLoop=1;jettySize=auto;html=1;exitX=0.5;exitY=1;exitDx=0;exitDy=0;" edge="1" parent="1">
          <mxGeometry relative="1" as="geometry">
            <mxPoint x="89.99999999999977" y="-495" as="sourcePoint" />
            <mxPoint x="89.99999999999977" y="-495" as="targetPoint" />
          </mxGeometry>
        </mxCell>
        <mxCell id="PWeqDjmUO35u3krlNOn2-30" value="Запозичення" style="rounded=0;whiteSpace=wrap;html=1;fontFamily=Times New Roman;" vertex="1" parent="1">
          <mxGeometry x="564.75" y="-477.5" width="87" height="40" as="geometry" />
        </mxCell>
        <mxCell id="PWeqDjmUO35u3krlNOn2-57" style="edgeStyle=none;rounded=0;orthogonalLoop=1;jettySize=auto;html=1;exitX=0.5;exitY=1;exitDx=0;exitDy=0;entryX=0;entryY=0.5;entryDx=0;entryDy=0;endArrow=none;endFill=0;" edge="1" parent="1" source="PWeqDjmUO35u3krlNOn2-31" target="ws13DUqkMzeIhvJP3DFd-22">
          <mxGeometry relative="1" as="geometry" />
        </mxCell>
        <mxCell id="PWeqDjmUO35u3krlNOn2-31" value="Читач" style="rounded=0;whiteSpace=wrap;html=1;fontFamily=Times New Roman;" vertex="1" parent="1">
          <mxGeometry x="563.25" y="-320" width="90" height="40" as="geometry" />
        </mxCell>
        <mxCell id="PWeqDjmUO35u3krlNOn2-59" style="edgeStyle=none;rounded=0;orthogonalLoop=1;jettySize=auto;html=1;exitX=0.5;exitY=0;exitDx=0;exitDy=0;entryX=0.5;entryY=1;entryDx=0;entryDy=0;endArrow=ERzeroToMany;endFill=0;" edge="1" parent="1" source="PWeqDjmUO35u3krlNOn2-58" target="PWeqDjmUO35u3krlNOn2-30">
          <mxGeometry relative="1" as="geometry" />
        </mxCell>
        <mxCell id="PWeqDjmUO35u3krlNOn2-60" style="edgeStyle=none;rounded=0;orthogonalLoop=1;jettySize=auto;html=1;exitX=0.5;exitY=1;exitDx=0;exitDy=0;entryX=0.5;entryY=0;entryDx=0;entryDy=0;endArrow=ERone;endFill=0;" edge="1" parent="1" source="PWeqDjmUO35u3krlNOn2-58" target="PWeqDjmUO35u3krlNOn2-31">
          <mxGeometry relative="1" as="geometry" />
        </mxCell>
        <mxCell id="PWeqDjmUO35u3krlNOn2-58" value="запозичив/&lt;div&gt;повернув&lt;/div&gt;" style="rhombus;whiteSpace=wrap;html=1;fontFamily=Times New Roman;" vertex="1" parent="1">
          <mxGeometry x="548" y="-400" width="120.5" height="55" as="geometry" />
        </mxCell>
        <mxCell id="PWeqDjmUO35u3krlNOn2-62" value="ID Книги" style="ellipse;whiteSpace=wrap;html=1;fontFamily=Times New Roman;" vertex="1" parent="1">
          <mxGeometry x="30" y="-517.5" width="100" height="40" as="geometry" />
        </mxCell>
      </root>
    </mxGraphModel>
  </diagram>
</mxfile>
